<svg id="Layer_1" height="512" viewBox="0 0 32 32" width="512" xmlns="http://www.w3.org/2000/svg" data-name="Layer 1"><g fill="rgb(0,0,0)"><path d="m25.5 4.5h-12a2.5 2.5 0 0 0 0 5h12a2.5 2.5 0 0 0 0-5zm0 4h-12a1.5 1.5 0 0 1 0-3h12a1.5 1.5 0 0 1 0 3z"/><path d="m25.5 13.5h-12a2.5 2.5 0 0 0 0 5h12a2.5 2.5 0 0 0 0-5zm0 4h-12a1.5 1.5 0 0 1 0-3h12a1.5 1.5 0 0 1 0 3z"/><path d="m25.5 22.5h-12a2.5 2.5 0 0 0 0 5h12a2.5 2.5 0 0 0 0-5zm0 4h-12a1.5 1.5 0 0 1 0-3h12a1.5 1.5 0 0 1 0 3z"/><path d="m6.5 4.5a2.5 2.5 0 1 0 2.5 2.5 2.5 2.5 0 0 0 -2.5-2.5zm0 4a1.5 1.5 0 1 1 1.5-1.5 1.5 1.5 0 0 1 -1.5 1.5z"/><path d="m6.5 13.5a2.5 2.5 0 1 0 2.5 2.5 2.5 2.5 0 0 0 -2.5-2.5zm0 4a1.5 1.5 0 1 1 1.5-1.5 1.5 1.5 0 0 1 -1.5 1.5z"/><path d="m6.5 22.5a2.5 2.5 0 1 0 2.5 2.5 2.5 2.5 0 0 0 -2.5-2.5zm0 4a1.5 1.5 0 1 1 1.5-1.5 1.5 1.5 0 0 1 -1.5 1.5z"/></g></svg>